<svg width="507" height="147" viewBox="0 0 507 147" fill="none" xmlns="http://www.w3.org/2000/svg">
<path d="M44.6409 99.5675L0 22H25.5869L57.7066 76.8513L44.6409 99.5675Z" fill="white"/>
<path d="M89.2814 22H51.7181L71.3161 54.1351L89.2814 22Z" fill="white"/>
<path d="M141 22H115.413L58.7959 121.73L71.3167 145L141 22Z" fill="white"/>
<path d="M192.656 68V50.2188L176.844 22.9062H185.656L196.562 42.5312H196.781L207.688 22.9062H216.5L200.688 50.2188V68H192.656ZM228.243 68.6562C224.93 68.6562 222.076 67.9583 219.68 66.5625C217.305 65.1667 215.482 63.1875 214.211 60.625C212.94 58.0625 212.305 55.0312 212.305 51.5312V51.5C212.305 48.0208 212.94 44.9896 214.211 42.4062C215.503 39.8021 217.305 37.7812 219.618 36.3438C221.951 34.9062 224.701 34.1875 227.868 34.1875C231.013 34.1875 233.732 34.8854 236.024 36.2812C238.336 37.6562 240.107 39.5938 241.336 42.0938C242.586 44.5938 243.211 47.5104 243.211 50.8438V53.3438H216.149V48.1562H239.493L235.743 53V50C235.743 47.8333 235.409 46.0312 234.743 44.5938C234.076 43.1562 233.159 42.0833 231.993 41.375C230.826 40.6458 229.482 40.2812 227.961 40.2812C226.42 40.2812 225.045 40.6562 223.836 41.4062C222.649 42.1354 221.711 43.2292 221.024 44.6875C220.357 46.1458 220.024 47.9167 220.024 50V53C220.024 55.0208 220.357 56.75 221.024 58.1875C221.711 59.6042 222.68 60.6979 223.93 61.4688C225.18 62.2188 226.67 62.5938 228.399 62.5938C229.69 62.5938 230.826 62.3958 231.805 62C232.784 61.5833 233.586 61.0521 234.211 60.4062C234.857 59.7604 235.305 59.0625 235.555 58.3125L235.618 58.0938H242.868L242.805 58.4375C242.534 59.7083 242.034 60.9583 241.305 62.1875C240.576 63.3958 239.597 64.4896 238.368 65.4688C237.138 66.4479 235.68 67.2292 233.993 67.8125C232.305 68.375 230.388 68.6562 228.243 68.6562ZM260.141 68.6562C256.704 68.6562 254.141 67.9062 252.454 66.4062C250.787 64.9062 249.954 62.4479 249.954 59.0312V40.875H245.266V34.875H249.954V26.4688H257.86V34.875H264.016V40.875H257.86V58.4062C257.86 60.0104 258.214 61.125 258.923 61.75C259.652 62.3542 260.714 62.6562 262.11 62.6562C262.506 62.6562 262.85 62.6458 263.141 62.625C263.454 62.5833 263.745 62.5521 264.016 62.5312V68.375C263.558 68.4375 262.995 68.5 262.329 68.5625C261.683 68.625 260.954 68.6562 260.141 68.6562ZM279.251 68L295.376 22.9062H302.158V30.9375H299.814L287.689 68H279.251ZM287.408 56.3438L289.564 50.125H310.22L312.376 56.3438H287.408ZM312.095 68L299.97 30.9375V22.9062H304.439L320.533 68H312.095ZM324.275 68V34.875H332.025V40.0625H332.212C333.067 38.2708 334.337 36.8438 336.025 35.7812C337.733 34.7188 339.837 34.1875 342.337 34.1875C345.983 34.1875 348.796 35.2917 350.775 37.5C352.775 39.7083 353.775 42.7292 353.775 46.5625V68H345.994V48.125C345.994 45.7708 345.442 43.9583 344.337 42.6875C343.233 41.3958 341.577 40.75 339.369 40.75C337.89 40.75 336.598 41.0938 335.494 41.7812C334.39 42.4479 333.535 43.3854 332.931 44.5938C332.327 45.7812 332.025 47.1771 332.025 48.7812V68H324.275ZM374.361 68.6562C371.111 68.6562 368.288 67.9688 365.893 66.5938C363.497 65.1979 361.632 63.2188 360.299 60.6562C358.986 58.0729 358.33 55 358.33 51.4375V51.375C358.33 47.8333 358.997 44.7812 360.33 42.2188C361.663 39.6354 363.528 37.6562 365.924 36.2812C368.32 34.8854 371.122 34.1875 374.33 34.1875C377.559 34.1875 380.372 34.8854 382.768 36.2812C385.184 37.6562 387.059 39.625 388.393 42.1875C389.726 44.75 390.393 47.8125 390.393 51.375V51.4375C390.393 55.0208 389.726 58.1042 388.393 60.6875C387.08 63.25 385.226 65.2188 382.83 66.5938C380.434 67.9688 377.611 68.6562 374.361 68.6562ZM374.393 62.375C376.038 62.375 377.465 61.9479 378.674 61.0938C379.882 60.2396 380.809 59 381.455 57.375C382.122 55.7292 382.455 53.75 382.455 51.4375V51.375C382.455 49.0833 382.122 47.125 381.455 45.5C380.788 43.875 379.84 42.6354 378.611 41.7812C377.403 40.9271 375.976 40.5 374.33 40.5C372.726 40.5 371.309 40.9271 370.08 41.7812C368.872 42.6354 367.924 43.875 367.236 45.5C366.57 47.125 366.236 49.0833 366.236 51.375V51.4375C366.236 53.75 366.57 55.7292 367.236 57.375C367.924 59 368.872 60.2396 370.08 61.0938C371.309 61.9479 372.747 62.375 374.393 62.375ZM407.354 68.6562C403.916 68.6562 401.354 67.9062 399.666 66.4062C398 64.9062 397.166 62.4479 397.166 59.0312V40.875H392.479V34.875H397.166V26.4688H405.072V34.875H411.229V40.875H405.072V58.4062C405.072 60.0104 405.427 61.125 406.135 61.75C406.864 62.3542 407.927 62.6562 409.322 62.6562C409.718 62.6562 410.062 62.6458 410.354 62.625C410.666 62.5833 410.958 62.5521 411.229 62.5312V68.375C410.77 68.4375 410.208 68.5 409.541 68.5625C408.895 68.625 408.166 68.6562 407.354 68.6562ZM416.471 68V22.9062H424.253V40.4375H424.409C425.284 38.4375 426.586 36.8958 428.315 35.8125C430.065 34.7292 432.169 34.1875 434.628 34.1875C437.023 34.1875 439.096 34.7396 440.846 35.8438C442.596 36.9271 443.95 38.4583 444.909 40.4375C445.867 42.3958 446.346 44.7083 446.346 47.375V68H438.565V48.9062C438.565 46.3646 437.95 44.375 436.721 42.9375C435.492 41.4792 433.763 40.75 431.534 40.75C430.075 40.75 428.794 41.1042 427.69 41.8125C426.607 42.5 425.763 43.4583 425.159 44.6875C424.555 45.8958 424.253 47.3021 424.253 48.9062V68H416.471ZM466.87 68.6562C463.557 68.6562 460.703 67.9583 458.307 66.5625C455.932 65.1667 454.11 63.1875 452.839 60.625C451.568 58.0625 450.932 55.0312 450.932 51.5312V51.5C450.932 48.0208 451.568 44.9896 452.839 42.4062C454.13 39.8021 455.932 37.7812 458.245 36.3438C460.578 34.9062 463.328 34.1875 466.495 34.1875C469.641 34.1875 472.36 34.8854 474.651 36.2812C476.964 37.6562 478.735 39.5938 479.964 42.0938C481.214 44.5938 481.839 47.5104 481.839 50.8438V53.3438H454.776V48.1562H478.12L474.37 53V50C474.37 47.8333 474.037 46.0312 473.37 44.5938C472.703 43.1562 471.787 42.0833 470.62 41.375C469.453 40.6458 468.11 40.2812 466.589 40.2812C465.047 40.2812 463.672 40.6562 462.464 41.4062C461.276 42.1354 460.339 43.2292 459.651 44.6875C458.985 46.1458 458.651 47.9167 458.651 50V53C458.651 55.0208 458.985 56.75 459.651 58.1875C460.339 59.6042 461.307 60.6979 462.557 61.4688C463.807 62.2188 465.297 62.5938 467.026 62.5938C468.318 62.5938 469.453 62.3958 470.432 62C471.412 61.5833 472.214 61.0521 472.839 60.4062C473.485 59.7604 473.932 59.0625 474.182 58.3125L474.245 58.0938H481.495L481.432 58.4375C481.162 59.7083 480.662 60.9583 479.932 62.1875C479.203 63.3958 478.224 64.4896 476.995 65.4688C475.766 66.4479 474.307 67.2292 472.62 67.8125C470.932 68.375 469.016 68.6562 466.87 68.6562ZM486.487 68V34.875H494.237V40.5938H494.425C494.925 38.5938 495.831 37.0312 497.144 35.9062C498.477 34.7604 500.102 34.1875 502.019 34.1875C502.498 34.1875 502.956 34.2188 503.394 34.2812C503.831 34.3438 504.196 34.4167 504.487 34.5V41.5312C504.175 41.4062 503.727 41.3021 503.144 41.2188C502.581 41.1354 501.967 41.0938 501.3 41.0938C499.842 41.0938 498.581 41.3958 497.519 42C496.456 42.5833 495.644 43.4479 495.081 44.5938C494.519 45.7396 494.237 47.1354 494.237 48.7812V68H486.487ZM179.969 144V98.9062H189.281L203.094 133.375H203.312L217.125 98.9062H226.438V144H219.188V111.906H215.469L223.688 100.156L205.938 144H200.469L182.719 100.156L190.938 111.906H187.219V144H179.969ZM241.305 99.3125H246.493L245.93 110.094H241.868L241.305 99.3125ZM241.305 120.844L241.868 110.094H245.93L246.493 120.844H241.305ZM233.399 106.656L236.055 102.625L244.93 108.438L242.899 111.688L233.399 106.656ZM254.43 106.656L244.961 111.688L242.899 108.438L251.774 102.625L254.43 106.656ZM254.43 113.469L251.774 117.531L242.899 111.688L244.93 108.438L254.43 113.469ZM233.399 113.5L242.899 108.469L244.93 111.719L236.055 117.562L233.399 113.5ZM277.978 129.094V122.594H289.321C292.238 122.594 294.488 121.854 296.071 120.375C297.675 118.875 298.478 116.771 298.478 114.062V114C298.478 111.271 297.675 109.167 296.071 107.688C294.488 106.208 292.238 105.469 289.321 105.469H277.978V98.9062H291.321C294.363 98.9062 297.03 99.5312 299.321 100.781C301.634 102.031 303.436 103.792 304.728 106.062C306.019 108.312 306.665 110.948 306.665 113.969V114.031C306.665 117.031 306.019 119.667 304.728 121.938C303.436 124.188 301.634 125.948 299.321 127.219C297.03 128.469 294.363 129.094 291.321 129.094H277.978ZM273.946 144V98.9062H282.009V144H273.946ZM311.689 144V98.9062H319.47V144H311.689ZM335.556 144.562C333.369 144.562 331.431 144.146 329.744 143.312C328.077 142.458 326.775 141.281 325.837 139.781C324.921 138.26 324.462 136.521 324.462 134.562V134.5C324.462 132.521 324.952 130.833 325.931 129.438C326.931 128.021 328.369 126.906 330.244 126.094C332.119 125.26 334.39 124.76 337.056 124.594L349.712 123.812V128.969L338.15 129.688C336.233 129.812 334.765 130.271 333.744 131.062C332.723 131.854 332.212 132.906 332.212 134.219V134.25C332.212 135.604 332.723 136.677 333.744 137.469C334.785 138.24 336.16 138.625 337.869 138.625C339.369 138.625 340.702 138.323 341.869 137.719C343.056 137.115 343.994 136.292 344.681 135.25C345.369 134.208 345.712 133.031 345.712 131.719V121.781C345.712 120.115 345.181 118.802 344.119 117.844C343.077 116.865 341.567 116.375 339.587 116.375C337.754 116.375 336.285 116.771 335.181 117.562C334.077 118.333 333.39 119.333 333.119 120.562L333.056 120.844H325.869L325.9 120.469C326.067 118.51 326.723 116.76 327.869 115.219C329.015 113.656 330.598 112.427 332.619 111.531C334.66 110.635 337.077 110.188 339.869 110.188C342.64 110.188 345.035 110.646 347.056 111.562C349.098 112.479 350.671 113.76 351.775 115.406C352.9 117.052 353.462 118.99 353.462 121.219V144H345.712V138.906H345.525C344.9 140.052 344.087 141.052 343.087 141.906C342.087 142.76 340.942 143.417 339.65 143.875C338.379 144.333 337.015 144.562 335.556 144.562ZM371.736 144.656C368.299 144.656 365.736 143.906 364.049 142.406C362.382 140.906 361.549 138.448 361.549 135.031V116.875H356.861V110.875H361.549V102.469H369.455V110.875H375.611V116.875H369.455V134.406C369.455 136.01 369.809 137.125 370.518 137.75C371.247 138.354 372.309 138.656 373.705 138.656C374.101 138.656 374.445 138.646 374.736 138.625C375.049 138.583 375.34 138.552 375.611 138.531V144.375C375.153 144.438 374.59 144.5 373.924 144.562C373.278 144.625 372.549 144.656 371.736 144.656ZM382.791 144V116.875H378.26V110.875H382.791V107.719C382.791 105.552 383.145 103.771 383.854 102.375C384.583 100.979 385.697 99.9479 387.197 99.2812C388.697 98.5938 390.645 98.25 393.041 98.25C393.812 98.25 394.572 98.2812 395.322 98.3438C396.093 98.4062 396.718 98.4792 397.197 98.5625V104C396.864 103.958 396.489 103.927 396.072 103.906C395.677 103.865 395.27 103.844 394.854 103.844C393.333 103.844 392.208 104.188 391.479 104.875C390.77 105.562 390.416 106.583 390.416 107.938V110.875H397.072V116.875H390.572V144H382.791ZM413.909 144.656C410.659 144.656 407.836 143.969 405.44 142.594C403.044 141.198 401.18 139.219 399.846 136.656C398.534 134.073 397.878 131 397.878 127.438V127.375C397.878 123.833 398.544 120.781 399.878 118.219C401.211 115.635 403.075 113.656 405.471 112.281C407.867 110.885 410.669 110.188 413.878 110.188C417.107 110.188 419.919 110.885 422.315 112.281C424.732 113.656 426.607 115.625 427.94 118.188C429.273 120.75 429.94 123.812 429.94 127.375V127.438C429.94 131.021 429.273 134.104 427.94 136.688C426.628 139.25 424.773 141.219 422.378 142.594C419.982 143.969 417.159 144.656 413.909 144.656ZM413.94 138.375C415.586 138.375 417.013 137.948 418.221 137.094C419.43 136.24 420.357 135 421.003 133.375C421.669 131.729 422.003 129.75 422.003 127.438V127.375C422.003 125.083 421.669 123.125 421.003 121.5C420.336 119.875 419.388 118.635 418.159 117.781C416.95 116.927 415.523 116.5 413.878 116.5C412.273 116.5 410.857 116.927 409.628 117.781C408.419 118.635 407.471 119.875 406.784 121.5C406.117 123.125 405.784 125.083 405.784 127.375V127.438C405.784 129.75 406.117 131.729 406.784 133.375C407.471 135 408.419 136.24 409.628 137.094C410.857 137.948 412.294 138.375 413.94 138.375ZM434.62 144V110.875H442.37V116.594H442.557C443.057 114.594 443.964 113.031 445.276 111.906C446.61 110.76 448.235 110.188 450.151 110.188C450.63 110.188 451.089 110.219 451.526 110.281C451.964 110.344 452.328 110.417 452.62 110.5V117.531C452.307 117.406 451.86 117.302 451.276 117.219C450.714 117.135 450.099 117.094 449.432 117.094C447.974 117.094 446.714 117.396 445.651 118C444.589 118.583 443.776 119.448 443.214 120.594C442.651 121.74 442.37 123.135 442.37 124.781V144H434.62ZM456.3 144V110.875H464.05V116.188H464.237C464.925 114.375 466.081 112.927 467.706 111.844C469.331 110.74 471.237 110.188 473.425 110.188C474.967 110.188 476.352 110.458 477.581 111C478.81 111.521 479.852 112.281 480.706 113.281C481.581 114.26 482.217 115.458 482.612 116.875H482.769C483.31 115.5 484.081 114.323 485.081 113.344C486.102 112.344 487.29 111.573 488.644 111.031C490.019 110.469 491.498 110.188 493.081 110.188C495.269 110.188 497.165 110.656 498.769 111.594C500.394 112.51 501.654 113.802 502.55 115.469C503.467 117.115 503.925 119.052 503.925 121.281V144H496.144V123.188C496.144 121.812 495.915 120.646 495.456 119.688C494.998 118.729 494.331 118 493.456 117.5C492.581 117 491.498 116.75 490.206 116.75C488.956 116.75 487.852 117.042 486.894 117.625C485.956 118.188 485.217 118.979 484.675 120C484.154 121.021 483.894 122.198 483.894 123.531V144H476.331V122.781C476.331 121.531 476.092 120.458 475.612 119.562C475.133 118.667 474.456 117.979 473.581 117.5C472.706 117 471.665 116.75 470.456 116.75C469.206 116.75 468.102 117.052 467.144 117.656C466.185 118.26 465.425 119.083 464.862 120.125C464.321 121.167 464.05 122.365 464.05 123.719V144H456.3Z" fill="white"/>
</svg>
