<svg width="342" height="148" viewBox="0 0 342 148" fill="none" xmlns="http://www.w3.org/2000/svg">
<path d="M16.6562 71V53.2188L0.84375 25.9062H9.65625L20.5625 45.5312H20.7812L31.6875 25.9062H40.5L24.6875 53.2188V71H16.6562ZM52.2425 71.6562C48.93 71.6562 46.0758 70.9583 43.68 69.5625C41.305 68.1667 39.4821 66.1875 38.2113 63.625C36.9404 61.0625 36.305 58.0312 36.305 54.5312V54.5C36.305 51.0208 36.9404 47.9896 38.2113 45.4062C39.5029 42.8021 41.305 40.7812 43.6175 39.3438C45.9508 37.9062 48.7008 37.1875 51.8675 37.1875C55.0133 37.1875 57.7321 37.8854 60.0238 39.2812C62.3363 40.6562 64.1071 42.5938 65.3363 45.0938C66.5863 47.5938 67.2113 50.5104 67.2113 53.8438V56.3438H40.1488V51.1562H63.4925L59.7425 56V53C59.7425 50.8333 59.4092 49.0312 58.7425 47.5938C58.0758 46.1562 57.1592 45.0833 55.9925 44.375C54.8258 43.6458 53.4821 43.2812 51.9613 43.2812C50.4196 43.2812 49.0446 43.6562 47.8363 44.4062C46.6488 45.1354 45.7113 46.2292 45.0238 47.6875C44.3571 49.1458 44.0238 50.9167 44.0238 53V56C44.0238 58.0208 44.3571 59.75 45.0238 61.1875C45.7113 62.6042 46.68 63.6979 47.93 64.4688C49.18 65.2188 50.6696 65.5938 52.3988 65.5938C53.6904 65.5938 54.8258 65.3958 55.805 65C56.7842 64.5833 57.5863 64.0521 58.2113 63.4062C58.8571 62.7604 59.305 62.0625 59.555 61.3125L59.6175 61.0938H66.8675L66.805 61.4375C66.5342 62.7083 66.0342 63.9583 65.305 65.1875C64.5758 66.3958 63.5967 67.4896 62.3675 68.4688C61.1383 69.4479 59.68 70.2292 57.9925 70.8125C56.305 71.375 54.3883 71.6562 52.2425 71.6562ZM84.1413 71.6562C80.7038 71.6562 78.1413 70.9062 76.4538 69.4062C74.7871 67.9062 73.9538 65.4479 73.9538 62.0312V43.875H69.2663V37.875H73.9538V29.4688H81.86V37.875H88.0163V43.875H81.86V61.4062C81.86 63.0104 82.2142 64.125 82.9225 64.75C83.6517 65.3542 84.7142 65.6562 86.11 65.6562C86.5058 65.6562 86.8496 65.6458 87.1413 65.625C87.4538 65.5833 87.7454 65.5521 88.0163 65.5312V71.375C87.5579 71.4375 86.9954 71.5 86.3288 71.5625C85.6829 71.625 84.9538 71.6562 84.1413 71.6562ZM103.251 71L119.376 25.9062H126.158V33.9375H123.814L111.689 71H103.251ZM111.408 59.3438L113.564 53.125H134.22L136.376 59.3438H111.408ZM136.095 71L123.97 33.9375V25.9062H128.439L144.533 71H136.095ZM148.275 71V37.875H156.025V43.0625H156.212C157.067 41.2708 158.337 39.8438 160.025 38.7812C161.733 37.7188 163.837 37.1875 166.337 37.1875C169.983 37.1875 172.796 38.2917 174.775 40.5C176.775 42.7083 177.775 45.7292 177.775 49.5625V71H169.994V51.125C169.994 48.7708 169.442 46.9583 168.337 45.6875C167.233 44.3958 165.577 43.75 163.369 43.75C161.89 43.75 160.598 44.0938 159.494 44.7812C158.39 45.4479 157.535 46.3854 156.931 47.5938C156.327 48.7812 156.025 50.1771 156.025 51.7812V71H148.275ZM198.361 71.6562C195.111 71.6562 192.288 70.9688 189.893 69.5938C187.497 68.1979 185.632 66.2188 184.299 63.6562C182.986 61.0729 182.33 58 182.33 54.4375V54.375C182.33 50.8333 182.997 47.7812 184.33 45.2188C185.663 42.6354 187.528 40.6562 189.924 39.2812C192.32 37.8854 195.122 37.1875 198.33 37.1875C201.559 37.1875 204.372 37.8854 206.768 39.2812C209.184 40.6562 211.059 42.625 212.393 45.1875C213.726 47.75 214.393 50.8125 214.393 54.375V54.4375C214.393 58.0208 213.726 61.1042 212.393 63.6875C211.08 66.25 209.226 68.2188 206.83 69.5938C204.434 70.9688 201.611 71.6562 198.361 71.6562ZM198.393 65.375C200.038 65.375 201.465 64.9479 202.674 64.0938C203.882 63.2396 204.809 62 205.455 60.375C206.122 58.7292 206.455 56.75 206.455 54.4375V54.375C206.455 52.0833 206.122 50.125 205.455 48.5C204.788 46.875 203.84 45.6354 202.611 44.7812C201.403 43.9271 199.976 43.5 198.33 43.5C196.726 43.5 195.309 43.9271 194.08 44.7812C192.872 45.6354 191.924 46.875 191.236 48.5C190.57 50.125 190.236 52.0833 190.236 54.375V54.4375C190.236 56.75 190.57 58.7292 191.236 60.375C191.924 62 192.872 63.2396 194.08 64.0938C195.309 64.9479 196.747 65.375 198.393 65.375ZM231.354 71.6562C227.916 71.6562 225.354 70.9062 223.666 69.4062C222 67.9062 221.166 65.4479 221.166 62.0312V43.875H216.479V37.875H221.166V29.4688H229.072V37.875H235.229V43.875H229.072V61.4062C229.072 63.0104 229.427 64.125 230.135 64.75C230.864 65.3542 231.927 65.6562 233.322 65.6562C233.718 65.6562 234.062 65.6458 234.354 65.625C234.666 65.5833 234.958 65.5521 235.229 65.5312V71.375C234.77 71.4375 234.208 71.5 233.541 71.5625C232.895 71.625 232.166 71.6562 231.354 71.6562ZM240.471 71V25.9062H248.253V43.4375H248.409C249.284 41.4375 250.586 39.8958 252.315 38.8125C254.065 37.7292 256.169 37.1875 258.628 37.1875C261.023 37.1875 263.096 37.7396 264.846 38.8438C266.596 39.9271 267.95 41.4583 268.909 43.4375C269.867 45.3958 270.346 47.7083 270.346 50.375V71H262.565V51.9062C262.565 49.3646 261.95 47.375 260.721 45.9375C259.492 44.4792 257.763 43.75 255.534 43.75C254.075 43.75 252.794 44.1042 251.69 44.8125C250.607 45.5 249.763 46.4583 249.159 47.6875C248.555 48.8958 248.253 50.3021 248.253 51.9062V71H240.471ZM290.87 71.6562C287.557 71.6562 284.703 70.9583 282.307 69.5625C279.932 68.1667 278.11 66.1875 276.839 63.625C275.568 61.0625 274.932 58.0312 274.932 54.5312V54.5C274.932 51.0208 275.568 47.9896 276.839 45.4062C278.13 42.8021 279.932 40.7812 282.245 39.3438C284.578 37.9062 287.328 37.1875 290.495 37.1875C293.641 37.1875 296.36 37.8854 298.651 39.2812C300.964 40.6562 302.735 42.5938 303.964 45.0938C305.214 47.5938 305.839 50.5104 305.839 53.8438V56.3438H278.776V51.1562H302.12L298.37 56V53C298.37 50.8333 298.037 49.0312 297.37 47.5938C296.703 46.1562 295.787 45.0833 294.62 44.375C293.453 43.6458 292.11 43.2812 290.589 43.2812C289.047 43.2812 287.672 43.6562 286.464 44.4062C285.276 45.1354 284.339 46.2292 283.651 47.6875C282.985 49.1458 282.651 50.9167 282.651 53V56C282.651 58.0208 282.985 59.75 283.651 61.1875C284.339 62.6042 285.307 63.6979 286.557 64.4688C287.807 65.2188 289.297 65.5938 291.026 65.5938C292.318 65.5938 293.453 65.3958 294.432 65C295.412 64.5833 296.214 64.0521 296.839 63.4062C297.485 62.7604 297.932 62.0625 298.182 61.3125L298.245 61.0938H305.495L305.432 61.4375C305.162 62.7083 304.662 63.9583 303.932 65.1875C303.203 66.3958 302.224 67.4896 300.995 68.4688C299.766 69.4479 298.307 70.2292 296.62 70.8125C294.932 71.375 293.016 71.6562 290.87 71.6562ZM310.487 71V37.875H318.237V43.5938H318.425C318.925 41.5938 319.831 40.0312 321.144 38.9062C322.477 37.7604 324.102 37.1875 326.019 37.1875C326.498 37.1875 326.956 37.2188 327.394 37.2812C327.831 37.3438 328.196 37.4167 328.487 37.5V44.5312C328.175 44.4062 327.727 44.3021 327.144 44.2188C326.581 44.1354 325.967 44.0938 325.3 44.0938C323.842 44.0938 322.581 44.3958 321.519 45C320.456 45.5833 319.644 46.4479 319.081 47.5938C318.519 48.7396 318.237 50.1354 318.237 51.7812V71H310.487ZM3.96875 147V101.906H13.2812L27.0938 136.375H27.3125L41.125 101.906H50.4375V147H43.1875V114.906H39.4688L47.6875 103.156L29.9375 147H24.4688L6.71875 103.156L14.9375 114.906H11.2188V147H3.96875ZM65.305 102.312H70.4925L69.93 113.094H65.8675L65.305 102.312ZM65.305 123.844L65.8675 113.094H69.93L70.4925 123.844H65.305ZM57.3988 109.656L60.055 105.625L68.93 111.438L66.8988 114.688L57.3988 109.656ZM78.43 109.656L68.9613 114.688L66.8988 111.438L75.7738 105.625L78.43 109.656ZM78.43 116.469L75.7738 120.531L66.8988 114.688L68.93 111.438L78.43 116.469ZM57.3988 116.5L66.8988 111.469L68.93 114.719L60.055 120.562L57.3988 116.5ZM101.978 132.094V125.594H113.321C116.238 125.594 118.488 124.854 120.071 123.375C121.675 121.875 122.478 119.771 122.478 117.062V117C122.478 114.271 121.675 112.167 120.071 110.688C118.488 109.208 116.238 108.469 113.321 108.469H101.978V101.906H115.321C118.363 101.906 121.03 102.531 123.321 103.781C125.634 105.031 127.436 106.792 128.728 109.062C130.019 111.312 130.665 113.948 130.665 116.969V117.031C130.665 120.031 130.019 122.667 128.728 124.938C127.436 127.188 125.634 128.948 123.321 130.219C121.03 131.469 118.363 132.094 115.321 132.094H101.978ZM97.9463 147V101.906H106.009V147H97.9463ZM135.689 147V101.906H143.47V147H135.689ZM159.556 147.562C157.369 147.562 155.431 147.146 153.744 146.312C152.077 145.458 150.775 144.281 149.837 142.781C148.921 141.26 148.462 139.521 148.462 137.562V137.5C148.462 135.521 148.952 133.833 149.931 132.438C150.931 131.021 152.369 129.906 154.244 129.094C156.119 128.26 158.39 127.76 161.056 127.594L173.712 126.812V131.969L162.15 132.688C160.233 132.812 158.765 133.271 157.744 134.062C156.723 134.854 156.212 135.906 156.212 137.219V137.25C156.212 138.604 156.723 139.677 157.744 140.469C158.785 141.24 160.16 141.625 161.869 141.625C163.369 141.625 164.702 141.323 165.869 140.719C167.056 140.115 167.994 139.292 168.681 138.25C169.369 137.208 169.712 136.031 169.712 134.719V124.781C169.712 123.115 169.181 121.802 168.119 120.844C167.077 119.865 165.567 119.375 163.587 119.375C161.754 119.375 160.285 119.771 159.181 120.562C158.077 121.333 157.39 122.333 157.119 123.562L157.056 123.844H149.869L149.9 123.469C150.067 121.51 150.723 119.76 151.869 118.219C153.015 116.656 154.598 115.427 156.619 114.531C158.66 113.635 161.077 113.188 163.869 113.188C166.64 113.188 169.035 113.646 171.056 114.562C173.098 115.479 174.671 116.76 175.775 118.406C176.9 120.052 177.462 121.99 177.462 124.219V147H169.712V141.906H169.525C168.9 143.052 168.087 144.052 167.087 144.906C166.087 145.76 164.942 146.417 163.65 146.875C162.379 147.333 161.015 147.562 159.556 147.562ZM195.736 147.656C192.299 147.656 189.736 146.906 188.049 145.406C186.382 143.906 185.549 141.448 185.549 138.031V119.875H180.861V113.875H185.549V105.469H193.455V113.875H199.611V119.875H193.455V137.406C193.455 139.01 193.809 140.125 194.518 140.75C195.247 141.354 196.309 141.656 197.705 141.656C198.101 141.656 198.445 141.646 198.736 141.625C199.049 141.583 199.34 141.552 199.611 141.531V147.375C199.153 147.438 198.59 147.5 197.924 147.562C197.278 147.625 196.549 147.656 195.736 147.656ZM206.791 147V119.875H202.26V113.875H206.791V110.719C206.791 108.552 207.145 106.771 207.854 105.375C208.583 103.979 209.697 102.948 211.197 102.281C212.697 101.594 214.645 101.25 217.041 101.25C217.812 101.25 218.572 101.281 219.322 101.344C220.093 101.406 220.718 101.479 221.197 101.562V107C220.864 106.958 220.489 106.927 220.072 106.906C219.677 106.865 219.27 106.844 218.854 106.844C217.333 106.844 216.208 107.188 215.479 107.875C214.77 108.562 214.416 109.583 214.416 110.938V113.875H221.072V119.875H214.572V147H206.791ZM237.909 147.656C234.659 147.656 231.836 146.969 229.44 145.594C227.044 144.198 225.18 142.219 223.846 139.656C222.534 137.073 221.878 134 221.878 130.438V130.375C221.878 126.833 222.544 123.781 223.878 121.219C225.211 118.635 227.075 116.656 229.471 115.281C231.867 113.885 234.669 113.188 237.878 113.188C241.107 113.188 243.919 113.885 246.315 115.281C248.732 116.656 250.607 118.625 251.94 121.188C253.273 123.75 253.94 126.812 253.94 130.375V130.438C253.94 134.021 253.273 137.104 251.94 139.688C250.628 142.25 248.773 144.219 246.378 145.594C243.982 146.969 241.159 147.656 237.909 147.656ZM237.94 141.375C239.586 141.375 241.013 140.948 242.221 140.094C243.43 139.24 244.357 138 245.003 136.375C245.669 134.729 246.003 132.75 246.003 130.438V130.375C246.003 128.083 245.669 126.125 245.003 124.5C244.336 122.875 243.388 121.635 242.159 120.781C240.95 119.927 239.523 119.5 237.878 119.5C236.273 119.5 234.857 119.927 233.628 120.781C232.419 121.635 231.471 122.875 230.784 124.5C230.117 126.125 229.784 128.083 229.784 130.375V130.438C229.784 132.75 230.117 134.729 230.784 136.375C231.471 138 232.419 139.24 233.628 140.094C234.857 140.948 236.294 141.375 237.94 141.375ZM258.62 147V113.875H266.37V119.594H266.557C267.057 117.594 267.964 116.031 269.276 114.906C270.61 113.76 272.235 113.188 274.151 113.188C274.63 113.188 275.089 113.219 275.526 113.281C275.964 113.344 276.328 113.417 276.62 113.5V120.531C276.307 120.406 275.86 120.302 275.276 120.219C274.714 120.135 274.099 120.094 273.432 120.094C271.974 120.094 270.714 120.396 269.651 121C268.589 121.583 267.776 122.448 267.214 123.594C266.651 124.74 266.37 126.135 266.37 127.781V147H258.62ZM280.3 147V113.875H288.05V119.188H288.237C288.925 117.375 290.081 115.927 291.706 114.844C293.331 113.74 295.237 113.188 297.425 113.188C298.967 113.188 300.352 113.458 301.581 114C302.81 114.521 303.852 115.281 304.706 116.281C305.581 117.26 306.217 118.458 306.612 119.875H306.769C307.31 118.5 308.081 117.323 309.081 116.344C310.102 115.344 311.29 114.573 312.644 114.031C314.019 113.469 315.498 113.188 317.081 113.188C319.269 113.188 321.165 113.656 322.769 114.594C324.394 115.51 325.654 116.802 326.55 118.469C327.467 120.115 327.925 122.052 327.925 124.281V147H320.144V126.188C320.144 124.812 319.915 123.646 319.456 122.688C318.998 121.729 318.331 121 317.456 120.5C316.581 120 315.498 119.75 314.206 119.75C312.956 119.75 311.852 120.042 310.894 120.625C309.956 121.188 309.217 121.979 308.675 123C308.154 124.021 307.894 125.198 307.894 126.531V147H300.331V125.781C300.331 124.531 300.092 123.458 299.612 122.562C299.133 121.667 298.456 120.979 297.581 120.5C296.706 120 295.665 119.75 294.456 119.75C293.206 119.75 292.102 120.052 291.144 120.656C290.185 121.26 289.425 122.083 288.862 123.125C288.321 124.167 288.05 125.365 288.05 126.719V147H280.3Z" fill="white"/>
</svg>
